<svg id="Layer_1" data-name="Layer 1" xmlns="http://www.w3.org/2000/svg" viewBox="0 0 72.93 126.95"><defs><style>.cls-1{fill:#fff;}.cls-2{fill:#d6d6d6;}</style></defs><path class="cls-1" d="M65.43,119.44a2.72,2.72,0,0,1-3.84,0l-54-54h0a2.71,2.71,0,0,1,0-3.84h0l54-54a2.71,2.71,0,0,1,3.85,0h0a2.72,2.72,0,0,1,0,3.84L13.3,63.47l.48.48,51.65,51.64a2.73,2.73,0,0,1,0,3.85Z" transform="translate(0 0)"/><path class="cls-2" d="M60.64,114.65a4.87,4.87,0,0,1,1.86-1.06c1.56-.48,1.46-.07.85-.13,1,.09,2.59.53,2.94,1.11a4.44,4.44,0,0,0-.69-.68L64,112.25l-4.2-4.2-10.95-11L24.4,72.69l-8.77-8.77-2.48-2.49c-.21-.2-.41-.42-.63-.62-.7-.66.52.83.65,1.15s.34,2.22.34,1.51-.24,1.27-.34,1.52-.68,1.41-.85,1.34c0,0,.06-.07.07-.07a3.18,3.18,0,0,0,.41-.41L14.61,64l7-7L42.69,36l19-19c1.46-1.46,3-2.88,4.39-4.39,0,0,.27-.22.26-.26s6-4.63-.41.31a3.86,3.86,0,0,1-2,.81c-1.69.18.84.18-.85,0a4,4,0,0,1-2.44-1.13,4.43,4.43,0,0,1-1.06-1.86c-.09-1.22-.13-1.55-.13-1,0,.35,0,.21.07-.42,0-.2.81-2.64,1.12-2.44h0s-.09.11-.12.13-.35.35-.52.52L45.64,21.56,23.76,43.44,9.25,58l-.73.73a6.86,6.86,0,0,0,0,9.57q9.12,9.1,18.22,18.22L55,114.7l4.39,4.38c.35.36.7.73,1.07,1.07,0,0,.14.19.2.21a7.07,7.07,0,0,0-.62-.82l-.42-1c-.1-1.27-.14-1.56-.13-.84a4.3,4.3,0,0,1,1.19-3c-2.5,2.51-2.69,7.1,0,9.57a6.88,6.88,0,0,0,9.57,0,9.62,9.62,0,0,0,0-13.42l-.47-.47-3-3L54.63,95.23,25.26,65.86l-7.18-7.18v9.57L29.21,57.13,51.64,34.69l17-17c.49-.49,1-1,1.47-1.47a9.65,9.65,0,0,0,.13-13.55,9.65,9.65,0,0,0-13.56.15c-.49.47-1,1-1.43,1.44L38.55,21,16,43.53c-4.34,4.34-8.76,8.63-13,13A9.66,9.66,0,0,0,1.37,68.41,14.49,14.49,0,0,0,3.61,71l6.65,6.66q12.06,12,24.1,24.1l21.3,21.29a15.13,15.13,0,0,0,2.9,2.52,9.72,9.72,0,0,0,11.65-1.38c2.66-2.35,2.58-7.2,0-9.57A6.94,6.94,0,0,0,60.64,114.65Z" transform="translate(0 0)"/></svg>