<svg id="Layer_1" data-name="Layer 1" xmlns="http://www.w3.org/2000/svg" viewBox="0 0 20.66 21.2"><defs><style>.cls-1{fill:#fff;stroke:#fff;stroke-miterlimit:10;}</style></defs><path class="cls-1" d="M1189.57,1695.32a1.54,1.54,0,0,1-1.67,1.61,1.56,1.56,0,0,1-1.59-1.61,1.61,1.61,0,0,1,1.65-1.65A1.56,1.56,0,0,1,1189.57,1695.32Zm-2.93,18.55v-14.48h2.64v14.48Z" transform="translate(-1185.81 -1693.17)"/><path class="cls-1" d="M1193.65,1703.31c0-1.5,0-2.73-.12-3.92h2.33l.15,2.39h.06a5.33,5.33,0,0,1,4.79-2.72c2,0,5.12,1.2,5.12,6.16v8.65h-2.64v-8.35c0-2.33-.86-4.28-3.35-4.28a3.87,3.87,0,0,0-3.71,3.92v8.71h-2.63Z" transform="translate(-1185.81 -1693.17)"/></svg>