<svg id="Layer_1" data-name="Layer 1" xmlns="http://www.w3.org/2000/svg" viewBox="0 0 72.93 126.95"><defs><style>.cls-1{fill:#fff;}.cls-2{fill:#d6d6d6;}</style></defs><path class="cls-1" d="M7.53,7.5a2.72,2.72,0,0,1,3.85,0l54,54h0a2.72,2.72,0,0,1,0,3.85h0l-54,54.05a2.73,2.73,0,0,1-3.85,0h0a2.73,2.73,0,0,1,0-3.85L59.66,63.47,59.18,63,7.53,11.34a2.72,2.72,0,0,1,0-3.84Z" transform="translate(-0.03 0.01)"/><path class="cls-2" d="M12.32,12.28a4.74,4.74,0,0,1-1.86,1.06c-1.56.49-1.45.08-.84.13-1-.08-2.6-.52-2.95-1.11a5,5,0,0,0,.69.69L9,14.69l4.2,4.2,11,11,24.4,24.41L57.33,63c.83.82,1.66,1.65,2.48,2.48.21.21.41.42.63.62.71.67-.52-.82-.65-1.14s-.34-2.23-.34-1.52.24-1.26.34-1.51.68-1.42.85-1.35l-.07.07a4.07,4.07,0,0,0-.41.42L58.35,62.9l-7,7L30.27,91l-19,19c-1.47,1.46-3,2.89-4.4,4.39,0,0-.26.22-.26.26s-6,4.63.41-.31a3.84,3.84,0,0,1,2-.8c1.69-.19-.84-.19.85,0a4,4,0,0,1,2.44,1.12,4.5,4.5,0,0,1,1.06,1.86c.09,1.22.14,1.56.13,1,0-.36,0-.22-.06.42,0,.2-.82,2.64-1.13,2.44l0,0s.1-.1.12-.12c.19-.16.35-.35.52-.52l14.34-14.34L49.2,83.5,63.72,69l.73-.73a6.87,6.87,0,0,0,0-9.57L46.22,40.46,18,12.24,13.62,7.85c-.36-.35-.7-.73-1.07-1.07-.05,0-.15-.19-.21-.2a7.33,7.33,0,0,0,.62.81l.42,1c.1,1.28.14,1.56.13.85a4.28,4.28,0,0,1-1.19,3c2.51-2.5,2.69-7.1,0-9.57a6.89,6.89,0,0,0-9.57,0,9.62,9.62,0,0,0,0,13.42l.47.48,3,3L18.33,31.7,47.7,61.07q3.59,3.6,7.18,7.18V58.68L43.75,69.81,21.32,92.24l-17,17c-.49.49-1,1-1.47,1.47a9.64,9.64,0,0,0-.13,13.54,9.64,9.64,0,0,0,13.56-.15c.49-.46,1-.95,1.44-1.43L34.41,106,57,83.41c4.34-4.35,8.76-8.63,13-13a9.67,9.67,0,0,0,1.57-11.85,15.6,15.6,0,0,0-2.23-2.62L62.7,49.25,38.6,25.15,17.31,3.86A15.24,15.24,0,0,0,14.4,1.33,9.75,9.75,0,0,0,2.75,2.71c-2.66,2.35-2.58,7.2,0,9.57A6.92,6.92,0,0,0,12.32,12.28Z" transform="translate(-0.03 0.01)"/></svg>